<svg width="30" height="30" viewBox="0 0 30 30" fill="black" xmlns="http://www.w3.org/2000/svg">
<path d="M10.9062 21.4055V8.59424L21.9981 14.9999L10.9062 21.4055ZM11.8438 10.2174V19.7817L20.1231 14.9999L11.8438 10.2174Z" fill="#2D2D2D"/>
<path d="M15 29.0669C7.24625 29.0669 0.9375 22.7562 0.9375 15C0.9375 7.24373 7.24625 0.933105 15 0.933105C22.7537 0.933105 29.0625 7.24373 29.0625 15C29.0625 22.7562 22.7537 29.0669 15 29.0669ZM15 1.87061C7.76312 1.87061 1.875 7.76061 1.875 15C1.875 22.2394 7.76312 28.1294 15 28.1294C22.2369 28.1294 28.125 22.2394 28.125 15C28.125 7.76061 22.2369 1.87061 15 1.87061Z" fill="#2D2D2D"/>
</svg>
