<svg width="26" height="26" viewBox="0 0 26 26" fill="none" xmlns="http://www.w3.org/2000/svg">
<g clip-path="url(#clip0_711_3109)">
<path d="M0 21.0686C0 21.4046 0.0245025 21.7328 0.0708915 22.05H0.0984459C0.121989 22.1658 0.149456 22.2802 0.181022 22.393C0.719466 24.3171 2.4022 25.7674 4.45474 25.9744C4.62138 25.9912 4.79036 26 4.96144 26H21.1977C21.3688 26 21.5378 25.9912 21.7044 25.9744H21.5452C23.5977 25.7674 25.2804 24.3171 25.8189 22.393C25.9368 21.9715 25.9999 21.5274 25.9999 21.0687V17.6914H0V21.0687V21.0686Z" fill="#1EB53A"/>
<path d="M0 17.4368V17.6912H26V17.4368V17.1699H0V17.4368Z" fill="#CE1126"/>
<path d="M0 8.74921V8.82989H25.9782V8.74921V8.30859H0V8.74921Z" fill="#CE1126"/>
<path d="M0.00976562 17.1603V8.84033H25.9674V13.0106H25.9893V17.1603H0.00976562Z" fill="white"/>
<path d="M25.9577 8.85044V13.0206H25.9795V17.15H0.0204914V8.85044H25.9577ZM25.9782 8.83008H0V17.1704H26V13.0002H25.9782V8.83008Z" fill="#B3B3B3"/>
<path d="M25.9782 3.60698C25.4642 1.76999 23.9071 0.364953 21.9809 0.06136C21.8895 0.0469733 21.7974 0.0349267 21.7045 0.0255667C21.5378 0.00875333 21.3689 0 21.1978 0H4.96144C4.79036 0 4.62138 0.00875333 4.45474 0.0255667C4.36179 0.0349267 4.26962 0.0469733 4.17833 0.06136C2.25222 0.364953 0.695051 1.76999 0.181022 3.60698C0.13411 3.77468 0.0960043 3.94611 0.0669676 4.12048C0.0606894 4.12048 0.0544984 4.12048 0.0482202 4.12048C0.0165675 4.38429 0 4.65513 0 4.93125V8.30856H25.9782V3.60698Z" fill="#0099B5"/>
<path d="M5.82828 4.13056C5.82828 2.58087 6.96237 1.29465 8.45057 1.04644C8.28001 1.01801 8.10483 1.00293 7.92608 1.00293C6.18815 1.00293 4.7793 2.4032 4.7793 4.13056C4.7793 5.85791 6.18815 7.25818 7.92608 7.25818C8.10483 7.25818 8.27992 7.2431 8.45057 7.21468C6.96237 6.96646 5.82828 5.68024 5.82828 4.13056Z" fill="white"/>
<path d="M14.9899 6.43913L14.8485 6.00684L14.7073 6.43913H14.25L14.6199 6.70624L14.4786 7.13844L14.8485 6.87134L15.2185 7.13844L15.0772 6.70624L15.4471 6.43913H14.9899Z" fill="white"/>
<path d="M14.8485 3.50488L14.7073 3.93709H14.25L14.6199 4.20428L14.4786 4.63649L14.8485 4.36938L15.2185 4.63649L15.0772 4.20428L15.4471 3.93709H14.9899L14.8485 3.50488Z" fill="white"/>
<path d="M14.8485 1.00293L14.7073 1.43514H14.25L14.6199 1.70224L14.4786 2.13454L14.8485 1.86734L15.2185 2.13454L15.0772 1.70224L15.4471 1.43514H14.9899L14.8485 1.00293Z" fill="white"/>
<path d="M17.5074 6.43913L17.3662 6.00684L17.2248 6.43913H16.7676L17.1376 6.70624L16.9962 7.13844L17.3662 6.87134L17.7361 7.13844L17.5948 6.70624L17.9647 6.43913H17.5074Z" fill="white"/>
<path d="M17.3662 3.50488L17.2248 3.93709H16.7676L17.1376 4.20428L16.9962 4.63649L17.3662 4.36938L17.7361 4.63649L17.5948 4.20428L17.9647 3.93709H17.5074L17.3662 3.50488Z" fill="white"/>
<path d="M17.3662 1.00293L17.2248 1.43514H16.7676L17.1376 1.70224L16.9962 2.13454L17.3662 1.86734L17.7361 2.13454L17.5948 1.70224L17.9647 1.43514H17.5074L17.3662 1.00293Z" fill="white"/>
<path d="M20.0249 6.43913L19.8837 6.00684L19.7424 6.43913H19.2852L19.655 6.70624L19.5138 7.13844L19.8837 6.87134L20.2536 7.13844L20.1123 6.70624L20.4822 6.43913H20.0249Z" fill="white"/>
<path d="M19.8837 3.50488L19.7424 3.93709H19.2852L19.655 4.20428L19.5138 4.63649L19.8837 4.36938L20.2536 4.63649L20.1123 4.20428L20.4822 3.93709H20.0249L19.8837 3.50488Z" fill="white"/>
<path d="M19.8837 1.00293L19.7424 1.43514H19.2852L19.655 1.70224L19.5138 2.13454L19.8837 1.86734L20.2536 2.13454L20.1123 1.70224L20.4822 1.43514H20.0249L19.8837 1.00293Z" fill="white"/>
<path d="M10.1838 7.13854L10.1492 7.03271C10.125 7.04242 10.1007 7.05178 10.0762 7.06088L10.1838 7.13854Z" fill="white"/>
<path d="M10.4119 6.43945H10.0479C9.89539 6.57803 9.72911 6.70197 9.55122 6.80883L9.44336 7.13877L9.81325 6.87166L10.0756 7.06111C10.1001 7.05201 10.1245 7.04265 10.1486 7.03295L10.0419 6.70656L10.4118 6.43945H10.4119Z" fill="white"/>
<path d="M9.81337 6.00684L9.67211 6.43904H9.21484L9.58474 6.70615L9.55134 6.80842C9.72913 6.70156 9.89542 6.57762 10.048 6.43904H9.95471L9.81345 6.00684H9.81337Z" fill="white"/>
<path d="M12.4723 6.43913L12.3309 6.00684L12.1897 6.43913H11.7324L12.1023 6.70624L11.9611 7.13844L12.3309 6.87134L12.7008 7.13844L12.5596 6.70624L12.9295 6.43913H12.4723Z" fill="white"/>
<path d="M12.3324 3.50488L12.1911 3.93709H12.1165C12.1204 4.00105 12.1226 4.06544 12.1226 4.13036C12.1226 4.26928 12.1134 4.40604 12.0957 4.5402L12.3324 4.3693L12.7022 4.6364L12.561 4.2042L12.9309 3.93709H12.4736L12.3324 3.50488Z" fill="white"/>
<path d="M12.115 3.93701H11.7324L12.1023 4.20412L11.9611 4.63633L12.0943 4.54013C12.112 4.40597 12.1212 4.26921 12.1212 4.13028C12.1212 4.06537 12.119 4.00097 12.115 3.93701Z" fill="white"/>
</g>
<defs>
<clipPath id="clip0_711_3109">
<rect width="26" height="26" fill="white"/>
</clipPath>
</defs>
</svg>
