<svg width="266" height="523" viewBox="0 0 266 523" fill="none" xmlns="http://www.w3.org/2000/svg">
<path d="M156.489 366L156.576 408.153C156.645 441.387 129.686 468.346 96.4515 468.277L13.8461 468.105" stroke="black" stroke-width="2"/>
<path d="M155.5 366C155.5 366.552 155.948 367 156.5 367C157.052 367 157.5 366.552 157.5 366H155.5ZM156.5 73.5H157.5H156.5ZM265.707 8.70711C266.098 8.31658 266.098 7.68342 265.707 7.29289L259.343 0.928932C258.953 0.538408 258.319 0.538408 257.929 0.928932C257.538 1.31946 257.538 1.95262 257.929 2.34315L263.586 8L257.929 13.6569C257.538 14.0474 257.538 14.6805 257.929 15.0711C258.319 15.4616 258.953 15.4616 259.343 15.0711L265.707 8.70711ZM157.5 366V73.5H155.5V366H157.5ZM157.5 73.5C157.5 60.9812 159.577 50.7415 163.798 42.4131C168.013 34.0974 174.397 27.6263 183.118 22.6824C200.622 12.7597 227.511 9 265 9V7C227.489 7 200.128 10.7403 182.132 20.9426C173.103 26.0612 166.424 32.8089 162.014 41.5088C157.611 50.196 155.5 60.7688 155.5 73.5H157.5Z" fill="black"/>
</svg>
